ply
format ascii 1.0
comment Created by Blender 2.63 (sub 0) - www.blender.org, source file: ''
element vertex 327
property float x
property float y
property float z
property float nx
property float ny
property float nz
property float s
property float t
property uchar red
property uchar green
property uchar blue
element face 168
property list uchar uint vertex_indices
end_header
0.850000 0.000000 0.100000 0.294319 0.365733 0.882958 0.660830 0.905080 255 0 0
1.150000 0.000000 0.000000 0.294319 0.365733 0.882958 0.664479 0.694925 255 0 0
0.850000 0.070711 0.070711 0.294319 0.365733 0.882958 0.710474 0.905031 255 0 0
0.850000 0.100000 -0.000000 0.294320 0.882958 -0.365733 0.559860 0.900052 255 0 0
1.150000 0.000000 0.000000 0.294320 0.882958 -0.365733 0.606423 0.695027 255 0 0
0.850000 0.070711 -0.070711 0.294320 0.882958 -0.365733 0.606618 0.910910 255 0 0
1.150000 0.000000 0.000000 0.294319 0.882958 0.365733 0.606423 0.695027 255 0 0
0.850000 0.100000 -0.000000 0.294319 0.882958 0.365733 0.559860 0.900052 255 0 0
0.850000 0.070711 0.070711 0.294319 0.882958 0.365733 0.511279 0.887649 255 0 0
0.850000 0.070711 -0.070711 0.294320 0.365733 -0.882958 0.710474 0.904524 255 0 0
1.150000 0.000000 0.000000 0.294320 0.365733 -0.882958 0.757520 0.694961 255 0 0
0.850000 -0.000000 -0.100000 0.294320 0.365733 -0.882958 0.759947 0.904556 255 0 0
0.850000 -0.070711 0.070711 0.294319 -0.365733 0.882958 0.612240 0.904094 255 0 0
1.150000 0.000000 0.000000 0.294319 -0.365733 0.882958 0.664479 0.694925 255 0 0
0.850000 0.000000 0.100000 0.294319 -0.365733 0.882958 0.660830 0.905080 255 0 0
0.850000 -0.100000 -0.000000 0.294319 -0.882958 0.365733 0.952991 0.011971 255 0 0
1.150000 0.000000 0.000000 0.294319 -0.882958 0.365733 0.999483 0.216635 255 0 0
0.850000 -0.070711 0.070711 0.294319 -0.882958 0.365733 0.904540 0.024068 255 0 0
0.850000 -0.070711 -0.070711 0.294319 -0.882958 -0.365733 1.000000 0.001089 255 0 0
1.150000 0.000000 0.000000 0.294319 -0.882958 -0.365733 0.999483 0.216635 255 0 0
0.850000 -0.100000 -0.000000 0.294319 -0.882958 -0.365733 0.952991 0.011971 255 0 0
0.850000 -0.000000 -0.100000 0.294320 -0.365733 -0.882958 0.759947 0.904556 255 0 0
1.150000 0.000000 0.000000 0.294320 -0.365733 -0.882958 0.757520 0.694961 255 0 0
0.850000 -0.070711 -0.070711 0.294320 -0.365733 -0.882958 0.808730 0.903907 255 0 0
0.850000 0.100000 -0.000000 -1.000000 0.000000 0.000000 0.209956 0.910674 255 0 0
0.850000 0.070711 -0.070711 -1.000000 0.000000 0.000000 0.263084 0.910693 255 0 0
0.850000 0.070711 0.070711 -1.000000 0.000000 0.000000 0.172371 0.948268 255 0 0
0.000000 0.050000 -0.000000 0.000000 0.923880 -0.382683 0.587779 0.694985 255 0 0
1.000000 0.050000 0.000000 0.000000 0.923880 -0.382683 0.586607 0.000341 255 0 0
1.000000 0.035355 -0.035355 0.000000 0.923880 -0.382683 0.610605 0.000000 255 0 0
0.000000 0.035355 -0.035355 0.000000 0.382683 -0.923880 0.710474 0.694793 255 0 0
1.000000 0.035355 -0.035355 0.000000 0.382683 -0.923880 0.710573 0.000007 255 0 0
1.000000 -0.000000 -0.050000 0.000000 0.382683 -0.923880 0.735309 0.000175 255 0 0
0.000000 -0.000000 -0.050000 0.000000 -0.382683 -0.923880 0.735210 0.694961 255 0 0
1.000000 -0.000000 -0.050000 0.000000 -0.382683 -0.923880 0.735309 0.000175 255 0 0
1.000000 -0.035355 -0.035355 0.000000 -0.382683 -0.923880 0.759702 0.000000 255 0 0
0.000000 -0.035355 -0.035355 0.000000 -0.923880 -0.382683 0.511279 0.000285 255 0 0
1.000000 -0.035355 -0.035355 0.000000 -0.923880 -0.382683 0.509744 0.695019 255 0 0
1.000000 -0.050000 0.000000 0.000000 -0.923880 -0.382683 0.485620 0.694734 255 0 0
0.000000 -0.050000 -0.000000 -0.000000 -0.923880 0.382684 0.487154 0.000000 255 0 0
1.000000 -0.050000 0.000000 -0.000000 -0.923880 0.382684 0.485620 0.694734 255 0 0
1.000000 -0.035355 0.035355 -0.000000 -0.923880 0.382684 0.460651 0.694868 255 0 0
0.000000 -0.035355 0.035355 -0.000000 -0.382683 0.923879 0.612007 0.694655 255 0 0
1.000000 -0.035355 0.035355 -0.000000 -0.382683 0.923879 0.611777 0.000000 255 0 0
1.000000 0.000000 0.050000 -0.000000 -0.382683 0.923879 0.636076 0.000269 255 0 0
1.000000 0.035355 -0.035355 1.000000 -0.000000 0.000000 0.606611 1.020547 255 0 0
1.000000 0.050000 0.000000 1.000000 -0.000000 0.000000 0.587850 1.039331 255 0 0
1.000000 -0.000000 -0.050000 1.000000 -0.000000 0.000000 0.606618 0.993957 255 0 0
0.000000 0.035355 0.035355 -0.000000 0.923880 0.382684 0.562710 0.694795 255 0 0
1.000000 0.035355 0.035355 -0.000000 0.923880 0.382684 0.561538 0.000151 255 0 0
1.000000 0.050000 0.000000 -0.000000 0.923880 0.382684 0.586607 0.000341 255 0 0
0.000000 0.000000 0.050000 -0.000000 0.382683 0.923879 0.636305 0.694925 255 0 0
1.000000 0.000000 0.050000 -0.000000 0.382683 0.923879 0.636076 0.000269 255 0 0
1.000000 0.035355 0.035355 -0.000000 0.382683 0.923879 0.660897 0.000016 255 0 0
0.000000 0.050000 -0.000000 -1.000000 0.000000 0.000000 0.859203 0.929821 255 0 0
0.000000 0.035355 -0.035355 -1.000000 0.000000 0.000000 0.885766 0.929830 255 0 0
0.000000 -0.000000 -0.050000 -1.000000 0.000000 0.000000 0.904540 0.948640 255 0 0
0.850000 -0.000000 -0.100000 -1.000000 0.000000 -0.000000 0.300631 0.948313 255 0 0
0.850000 -0.070711 -0.070711 -1.000000 0.000000 -0.000000 0.300604 1.001497 255 0 0
0.850000 -0.100000 -0.000000 -1.000000 0.000000 -0.000000 0.263019 1.039091 255 0 0
0.850000 -0.070711 0.070711 -1.000000 -0.000000 0.000000 0.209891 1.039072 255 0 0
0.850000 -0.070711 0.070711 -1.000000 0.000000 -0.000002 0.209891 1.039072 255 0 0
0.850000 0.000000 0.100000 -1.000000 0.000000 -0.000002 0.172344 1.001452 255 0 0
0.850000 0.070711 0.070711 -1.000000 0.000000 -0.000002 0.172371 0.948268 255 0 0
0.000000 0.035355 -0.035355 0.000000 0.923880 -0.382683 0.611777 0.694644 255 0 0
0.000000 -0.000000 -0.050000 0.000000 0.382683 -0.923880 0.735210 0.694961 255 0 0
0.000000 -0.035355 -0.035355 0.000000 -0.382683 -0.923880 0.759603 0.694786 255 0 0
0.000000 -0.050000 -0.000000 0.000000 -0.923880 -0.382683 0.487154 0.000000 255 0 0
0.000000 -0.035355 0.035355 -0.000000 -0.923880 0.382684 0.462186 0.000134 255 0 0
0.000000 0.000000 0.050000 -0.000000 -0.382683 0.923879 0.636305 0.694925 255 0 0
1.000000 0.035355 0.035355 1.000000 -0.000000 0.000000 0.561327 1.039305 255 0 0
1.000000 0.000000 0.050000 1.000000 -0.000000 0.000000 0.542577 1.020483 255 0 0
1.000000 -0.035355 0.035355 1.000000 0.000000 -0.000000 0.542584 0.993893 255 0 0
1.000000 -0.050000 0.000000 1.000000 0.000000 -0.000000 0.561345 0.975109 255 0 0
1.000000 -0.035355 -0.035355 1.000000 0.000000 0.000000 0.587869 0.975135 255 0 0
0.000000 0.050000 -0.000000 -0.000000 0.923880 0.382684 0.587779 0.694985 255 0 0
0.000000 0.035355 0.035355 -0.000000 0.382683 0.923879 0.661126 0.694672 255 0 0
0.000000 -0.050000 -0.000000 -1.000000 0.000000 0.000000 0.885734 0.994029 255 0 0
0.000000 -0.035355 -0.035355 -1.000000 0.000000 0.000000 0.904527 0.975232 255 0 0
0.000000 0.000000 0.050000 -1.000000 0.000000 -0.000000 0.840396 0.975209 255 0 0
0.000000 -0.035355 0.035355 -1.000000 0.000000 -0.000000 0.859170 0.994019 255 0 0
0.000000 0.035355 0.035355 -1.000000 0.000000 0.000000 0.840410 0.948617 255 0 0
-0.100000 0.850000 -0.000000 -0.882958 0.294319 -0.365734 0.951549 0.227518 0 255 0
0.000000 1.150000 0.000000 -0.882958 0.294319 -0.365734 0.905057 0.432182 0 255 0
-0.070711 0.850000 -0.070711 -0.882958 0.294319 -0.365734 0.904540 0.216635 0 255 0
0.000000 0.850000 -0.100000 0.365733 0.294320 -0.882958 0.459496 0.695019 0 255 0
0.000000 1.150000 0.000000 0.365733 0.294320 -0.882958 0.457068 0.904614 0 255 0
0.070711 0.850000 -0.070711 0.365733 0.294320 -0.882958 0.410023 0.695051 0 255 0
-0.070711 0.850000 -0.070711 -0.365734 0.294320 -0.882958 0.508279 0.695668 0 255 0
0.000000 1.150000 0.000000 -0.365734 0.294320 -0.882958 0.457068 0.904614 0 255 0
0.000000 0.850000 -0.100000 -0.365734 0.294320 -0.882958 0.459496 0.695019 0 255 0
0.070711 0.850000 -0.070711 0.882958 0.294319 -0.365734 0.904540 0.841653 0 255 0
0.000000 1.150000 0.000000 0.882958 0.294319 -0.365734 0.999283 0.649446 0 255 0
0.100000 0.850000 -0.000000 0.882958 0.294319 -0.365734 0.953416 0.854119 0 255 0
-0.070711 0.850000 0.070711 -0.882958 0.294319 0.365734 1.000000 0.239615 0 255 0
0.000000 1.150000 0.000000 -0.882958 0.294319 0.365734 0.905057 0.432182 0 255 0
-0.100000 0.850000 -0.000000 -0.882958 0.294319 0.365734 0.951549 0.227518 0 255 0
0.000000 0.850000 0.100000 -0.365733 0.294319 0.882958 0.104121 0.694761 0 255 0
0.000000 1.150000 0.000000 -0.365733 0.294319 0.882958 0.107770 0.904916 0 255 0
-0.070711 0.850000 0.070711 -0.365733 0.294319 0.882958 0.055531 0.695747 0 255 0
0.070711 0.850000 0.070711 0.365733 0.294319 0.882958 0.153765 0.694810 0 255 0
0.000000 1.150000 0.000000 0.365733 0.294319 0.882958 0.107770 0.904916 0 255 0
0.000000 0.850000 0.100000 0.365733 0.294319 0.882958 0.104121 0.694761 0 255 0
0.100000 0.850000 -0.000000 0.882958 0.294319 0.365734 0.953416 0.854119 0 255 0
0.000000 1.150000 0.000000 0.882958 0.294319 0.365734 0.999283 0.649446 0 255 0
0.070711 0.850000 0.070711 0.882958 0.294319 0.365734 0.999706 0.865180 0 255 0
0.000000 0.850000 -0.100000 0.000000 -1.000000 -0.000000 0.435803 1.000887 0 255 0
0.070711 0.850000 -0.070711 0.000000 -1.000000 -0.000000 0.398255 1.038507 0 255 0
-0.070711 0.850000 -0.070711 0.000000 -1.000000 -0.000000 0.435776 0.947703 0 255 0
0.000000 0.000000 -0.050000 0.382684 0.000000 -0.923880 0.784438 0.000000 0 255 0
0.000000 1.000000 -0.050000 0.382684 0.000000 -0.923880 0.784536 0.694786 0 255 0
0.035355 1.000000 -0.035355 0.382684 0.000000 -0.923880 0.759800 0.694954 0 255 0
0.035355 0.000000 -0.035355 0.923879 0.000000 -0.382684 0.560294 0.000108 0 255 0
0.035355 1.000000 -0.035355 0.923879 0.000000 -0.382684 0.561538 0.694876 0 255 0
0.050000 1.000000 0.000000 0.923879 0.000000 -0.382684 0.536318 0.694768 0 255 0
0.050000 0.000000 -0.000000 0.923879 -0.000000 0.382684 0.535074 0.000000 0 255 0
0.050000 1.000000 0.000000 0.923879 -0.000000 0.382684 0.536318 0.694768 0 255 0
0.035355 1.000000 0.035355 0.923879 -0.000000 0.382684 0.512523 0.695027 0 255 0
0.035355 0.000000 0.035355 0.382684 -0.000000 0.923880 0.710474 0.000253 0 255 0
0.035355 1.000000 0.035355 0.382684 -0.000000 0.923880 0.710246 0.694908 0 255 0
0.000000 1.000000 0.050000 0.382684 -0.000000 0.923880 0.685425 0.694655 0 255 0
0.000000 0.000000 0.050000 -0.382684 -0.000000 0.923880 0.685653 0.000000 0 255 0
0.000000 1.000000 0.050000 -0.382684 -0.000000 0.923880 0.685425 0.694655 0 255 0
-0.035355 1.000000 0.035355 -0.382684 -0.000000 0.923880 0.661126 0.694925 0 255 0
-0.035355 0.000000 0.035355 -0.923880 -0.000000 0.382683 0.411558 0.694884 0 255 0
-0.035355 1.000000 0.035355 -0.923880 -0.000000 0.382683 0.410023 0.000151 0 255 0
-0.050000 1.000000 -0.000000 -0.923880 -0.000000 0.382683 0.434992 0.000285 0 255 0
0.035355 1.000000 -0.035355 -0.000000 1.000000 0.000000 0.691718 0.969294 0 255 0
0.000000 1.000000 -0.050000 -0.000000 1.000000 0.000000 0.710474 0.988108 0 255 0
0.050000 1.000000 0.000000 -0.000000 1.000000 0.000000 0.665172 0.969279 0 255 0
-0.035355 0.000000 -0.035355 -0.382684 0.000000 -0.923880 0.808831 0.000175 0 255 0
-0.035355 1.000000 -0.035355 -0.382684 0.000000 -0.923880 0.808929 0.694961 0 255 0
0.000000 1.000000 -0.050000 -0.382684 0.000000 -0.923880 0.784536 0.694786 0 255 0
-0.050000 0.000000 -0.000000 -0.923880 0.000000 -0.382683 0.436526 0.695019 0 255 0
-0.050000 1.000000 -0.000000 -0.923880 0.000000 -0.382683 0.434992 0.000285 0 255 0
-0.035355 1.000000 -0.035355 -0.923880 0.000000 -0.382683 0.459117 0.000000 0 255 0
0.000000 0.000000 -0.050000 0.000000 -1.000000 0.000000 0.508279 1.014202 0 255 0
0.035355 0.000000 -0.035355 0.000000 -1.000000 0.000000 0.489505 1.033012 0 255 0
0.050000 0.000000 -0.000000 0.000000 -1.000000 0.000000 0.462941 1.033021 0 255 0
0.100000 0.850000 -0.000000 0.000000 -1.000000 -0.000000 0.345128 1.038526 0 255 0
0.070711 0.850000 0.070711 0.000000 -1.000000 0.000000 0.307542 1.000932 0 255 0
0.070711 0.850000 0.070711 0.000001 -1.000000 -0.000001 0.307542 1.000932 0 255 0
0.000000 0.850000 0.100000 0.000001 -1.000000 -0.000001 0.307515 0.947748 0 255 0
-0.070711 0.850000 -0.070711 0.000001 -1.000000 -0.000001 0.435776 0.947703 0 255 0
0.000000 0.850000 0.100000 -0.000001 -1.000000 0.000000 0.307515 0.947748 0 255 0
-0.070711 0.850000 0.070711 -0.000001 -1.000000 0.000000 0.345063 0.910129 0 255 0
-0.070711 0.850000 -0.070711 -0.000001 -1.000000 0.000000 0.435776 0.947703 0 255 0
-0.070711 0.850000 0.070711 0.000000 -1.000000 0.000000 0.345063 0.910129 0 255 0
-0.100000 0.850000 -0.000000 0.000000 -1.000000 0.000000 0.398190 0.910110 0 255 0
0.035355 0.000000 -0.035355 0.382684 0.000000 -0.923880 0.759702 0.000168 0 255 0
0.050000 0.000000 -0.000000 0.923879 0.000000 -0.382684 0.535074 0.000000 0 255 0
0.035355 0.000000 0.035355 0.923879 -0.000000 0.382684 0.511279 0.000259 0 255 0
0.000000 0.000000 0.050000 0.382684 -0.000000 0.923880 0.685653 0.000000 0 255 0
-0.035355 0.000000 0.035355 -0.382684 -0.000000 0.923880 0.661355 0.000269 0 255 0
-0.050000 0.000000 -0.000000 -0.923880 -0.000000 0.382683 0.436526 0.695019 0 255 0
-0.035355 1.000000 -0.035355 0.000000 1.000000 0.000000 0.710453 1.014700 0 255 0
-0.050000 1.000000 -0.000000 0.000000 1.000000 0.000000 0.691666 1.033492 0 255 0
-0.035355 1.000000 0.035355 0.000000 1.000000 0.000000 0.665120 1.033477 0 255 0
0.000000 1.000000 0.050000 0.000000 1.000000 0.000000 0.646364 1.014663 0 255 0
0.035355 1.000000 0.035355 0.000000 1.000000 0.000000 0.646386 0.988071 0 255 0
0.000000 0.000000 -0.050000 -0.382684 0.000000 -0.923880 0.784438 0.000000 0 255 0
-0.035355 0.000000 -0.035355 -0.923880 0.000000 -0.382683 0.460651 0.694734 0 255 0
0.000000 0.000000 0.050000 -0.000000 -1.000000 -0.000000 0.444135 0.987633 0 255 0
0.035355 0.000000 0.035355 -0.000000 -1.000000 -0.000000 0.444148 1.014225 0 255 0
-0.050000 0.000000 -0.000000 0.000000 -1.000000 -0.000000 0.489472 0.968813 0 255 0
-0.035355 0.000000 0.035355 0.000000 -1.000000 -0.000000 0.462909 0.968823 0 255 0
-0.035355 0.000000 -0.035355 -0.000000 -1.000000 -0.000000 0.508265 0.987610 0 255 0
-0.100000 0.000000 0.850000 -0.882958 0.365734 0.294319 0.856950 0.659838 0 0 255
0.000000 0.000000 1.150000 -0.882958 0.365734 0.294319 0.904340 0.865622 0 0 255
-0.070711 0.070711 0.850000 -0.882958 0.365734 0.294319 0.808929 0.672066 0 0 255
0.000000 0.100000 0.850000 0.365733 0.882958 0.294319 0.856461 0.423150 0 0 255
0.000000 0.000000 1.150000 0.365733 0.882958 0.294319 0.809294 0.216635 0 0 255
0.070711 0.070711 0.850000 0.365733 0.882958 0.294319 0.904540 0.410704 0 0 255
-0.070711 0.070711 0.850000 -0.365734 0.882958 0.294319 0.808929 0.433271 0 0 255
0.000000 0.000000 1.150000 -0.365734 0.882958 0.294319 0.809294 0.216635 0 0 255
0.000000 0.100000 0.850000 -0.365734 0.882958 0.294319 0.856461 0.423150 0 0 255
0.070711 0.070711 0.850000 0.882958 0.365734 0.294319 0.999966 0.888591 0 0 255
0.000000 0.000000 1.150000 0.882958 0.365734 0.294319 0.904649 1.075787 0 0 255
0.100000 -0.000000 0.850000 0.882958 0.365734 0.294319 0.951555 0.878181 0 0 255
-0.070711 -0.070711 0.850000 -0.882958 -0.365734 0.294319 0.904540 0.649446 0 0 255
0.000000 0.000000 1.150000 -0.882958 -0.365734 0.294319 0.904340 0.865622 0 0 255
-0.100000 0.000000 0.850000 -0.882958 -0.365734 0.294319 0.856950 0.659838 0 0 255
0.000000 -0.100000 0.850000 -0.365734 -0.882958 0.294319 0.252610 0.704891 0 0 255
0.000000 0.000000 1.150000 -0.365734 -0.882958 0.294319 0.205220 0.910674 0 0 255
-0.070711 -0.070711 0.850000 -0.365734 -0.882958 0.294319 0.205020 0.694499 0 0 255
0.070711 -0.070711 0.850000 0.365733 -0.882958 0.294319 0.300631 0.717118 0 0 255
0.000000 0.000000 1.150000 0.365733 -0.882958 0.294319 0.205220 0.910674 0 0 255
0.000000 -0.100000 0.850000 0.365733 -0.882958 0.294319 0.252610 0.704891 0 0 255
0.100000 -0.000000 0.850000 0.882958 -0.365734 0.294319 0.951555 0.878181 0 0 255
0.000000 0.000000 1.150000 0.882958 -0.365734 0.294319 0.904649 1.075787 0 0 255
0.070711 -0.070711 0.850000 0.882958 -0.365734 0.294319 0.904540 0.865180 0 0 255
0.000000 0.100000 0.850000 0.000000 0.000000 -1.000000 0.025393 0.995713 0 0 255
0.070711 0.070711 0.850000 0.000000 0.000000 -1.000000 0.025398 0.942531 0 0 255
-0.070711 0.070711 0.850000 0.000000 0.000000 -1.000000 0.062987 1.033314 0 0 255
0.000000 0.050000 0.000000 0.382684 0.923880 0.000000 0.282690 0.694499 0 0 255
0.000000 0.050000 1.000000 0.382684 0.923880 0.000000 0.280561 0.000576 0 0 255
0.035355 0.035355 1.000000 0.382684 0.923880 0.000000 0.305386 0.000000 0 0 255
0.035355 0.035355 0.000000 0.923879 0.382684 0.000000 0.407897 0.000000 0 0 255
0.035355 0.035355 1.000000 0.923879 0.382684 0.000000 0.410023 0.693178 0 0 255
0.050000 -0.000000 1.000000 0.923879 0.382684 0.000000 0.385276 0.693934 0 0 255
0.050000 -0.000000 0.000000 0.923879 -0.382684 0.000000 0.383149 0.000757 0 0 255
0.050000 -0.000000 1.000000 0.923879 -0.382684 0.000000 0.385276 0.693934 0 0 255
0.035355 -0.035355 1.000000 0.923879 -0.382684 0.000000 0.360896 0.693266 0 0 255
0.035355 -0.035355 0.000000 0.382684 -0.923880 0.000000 0.102510 0.000476 0 0 255
0.035355 -0.035355 1.000000 0.382684 -0.923880 0.000000 0.100380 0.694761 0 0 255
0.000000 -0.050000 1.000000 0.382684 -0.923880 0.000000 0.075608 0.694285 0 0 255
0.000000 -0.050000 0.000000 -0.382684 -0.923880 -0.000000 0.077738 0.000000 0 0 255
0.000000 -0.050000 1.000000 -0.382684 -0.923880 -0.000000 0.075608 0.694285 0 0 255
-0.035355 -0.035355 1.000000 -0.382684 -0.923880 -0.000000 0.051255 0.694652 0 0 255
-0.035355 -0.035355 0.000000 -0.923880 -0.382683 -0.000000 0.202890 0.000368 0 0 255
-0.035355 -0.035355 1.000000 -0.923880 -0.382683 -0.000000 0.205020 0.694652 0 0 255
-0.050000 0.000000 1.000000 -0.923880 -0.382683 -0.000000 0.180667 0.694284 0 0 255
0.035355 0.035355 1.000000 -0.000000 -0.000000 1.000000 0.606612 0.956297 0 0 255
0.000000 0.050000 1.000000 -0.000000 -0.000000 1.000000 0.587815 0.975103 0 0 255
0.050000 -0.000000 1.000000 -0.000000 -0.000000 1.000000 0.606618 0.929707 0 0 255
-0.035355 0.035355 0.000000 -0.382684 0.923880 0.000000 0.258397 0.694006 0 0 255
-0.035355 0.035355 1.000000 -0.382684 0.923880 0.000000 0.256268 0.000083 0 0 255
0.000000 0.050000 1.000000 -0.382684 0.923880 0.000000 0.280561 0.000576 0 0 255
-0.050000 0.000000 0.000000 -0.923880 0.382683 0.000000 0.178537 0.000000 0 0 255
-0.050000 0.000000 1.000000 -0.923880 0.382683 0.000000 0.180667 0.694284 0 0 255
-0.035355 0.035355 1.000000 -0.923880 0.382683 0.000000 0.155895 0.694761 0 0 255
0.000000 0.050000 0.000000 0.000000 0.000000 -1.000000 0.444093 0.950012 0 0 255
0.035355 0.035355 0.000000 0.000000 0.000000 -1.000000 0.444095 0.923421 0 0 255
0.050000 -0.000000 0.000000 0.000000 0.000000 -1.000000 0.462896 0.904617 0 0 255
0.100000 -0.000000 0.850000 0.000000 0.000000 -1.000000 0.063000 0.904922 0 0 255
0.070711 -0.070711 0.850000 0.000000 0.000000 -1.000000 0.116171 0.904916 0 0 255
0.000000 -0.100000 0.850000 0.000000 0.000000 -1.000000 0.153765 0.942518 0 0 255
-0.070711 -0.070711 0.850000 0.000000 0.000000 -1.000000 0.153760 0.995700 0 0 255
-0.100000 0.000000 0.850000 0.000000 -0.000000 -1.000000 0.116158 1.033309 0 0 255
0.035355 0.035355 0.000000 0.382684 0.923880 0.000000 0.307515 0.693923 0 0 255
0.050000 -0.000000 0.000000 0.923879 0.382684 0.000000 0.383149 0.000757 0 0 255
0.035355 -0.035355 0.000000 0.923879 -0.382684 0.000000 0.358769 0.000088 0 0 255
0.000000 -0.050000 0.000000 0.382684 -0.923880 0.000000 0.077738 0.000000 0 0 255
-0.035355 -0.035355 0.000000 -0.382684 -0.923880 0.000000 0.053385 0.000368 0 0 255
-0.050000 0.000000 0.000000 -0.923880 -0.382683 0.000000 0.178537 0.000000 0 0 255
-0.035355 0.035355 1.000000 0.000000 -0.000000 1.000000 0.561238 0.975109 0 0 255
-0.050000 0.000000 1.000000 0.000000 -0.000000 1.000000 0.542449 0.956312 0 0 255
-0.035355 -0.035355 1.000000 0.000000 0.000000 1.000000 0.542456 0.929722 0 0 255
0.000000 -0.050000 1.000000 0.000000 0.000000 1.000000 0.561253 0.910916 0 0 255
0.035355 -0.035355 1.000000 0.000000 0.000000 1.000000 0.587830 0.910910 0 0 255
0.000000 0.050000 0.000000 -0.382684 0.923880 0.000000 0.282690 0.694499 0 0 255
-0.035355 0.035355 0.000000 -0.923880 0.382683 0.000000 0.153765 0.000476 0 0 255
0.000000 -0.050000 0.000000 -0.000000 0.000000 -1.000000 0.508279 0.923415 0 0 255
0.035355 -0.035355 0.000000 -0.000000 0.000000 -1.000000 0.489482 0.904614 0 0 255
-0.050000 0.000000 0.000000 0.000000 0.000000 -1.000000 0.489475 0.968811 0 0 255
-0.035355 -0.035355 0.000000 0.000000 0.000000 -1.000000 0.508276 0.950006 0 0 255
-0.035355 0.035355 0.000000 -0.000000 0.000000 -1.000000 0.462890 0.968813 0 0 255
-0.100000 0.000000 0.850000 -0.882958 0.365734 0.294319 0.856950 0.443663 0 0 255
0.000000 0.000000 1.150000 -0.882958 0.365734 0.294319 0.904340 0.649446 0 0 255
-0.070711 0.070711 0.850000 -0.882958 0.365734 0.294319 0.808929 0.455890 0 0 255
0.000000 0.100000 0.850000 0.365733 0.882958 0.294319 0.856461 0.206515 0 0 255
0.000000 0.000000 1.150000 0.365733 0.882958 0.294319 0.809294 0.000000 0 0 255
0.070711 0.070711 0.850000 0.365733 0.882958 0.294319 0.904540 0.194069 0 0 255
-0.070711 0.070711 0.850000 -0.365734 0.882958 0.294319 0.808929 0.216635 0 0 255
0.000000 0.000000 1.150000 -0.365734 0.882958 0.294319 0.809294 0.000000 0 0 255
0.000000 0.100000 0.850000 -0.365734 0.882958 0.294319 0.856461 0.206515 0 0 255
0.070711 0.070711 0.850000 0.882958 0.365734 0.294319 0.999966 0.462250 0 0 255
0.000000 0.000000 1.150000 0.882958 0.365734 0.294319 0.904649 0.649446 0 0 255
0.100000 -0.000000 0.850000 0.882958 0.365734 0.294319 0.951555 0.451840 0 0 255
-0.070711 -0.070711 0.850000 -0.882958 -0.365734 0.294319 0.904540 0.433271 0 0 255
0.000000 0.000000 1.150000 -0.882958 -0.365734 0.294319 0.904340 0.649446 0 0 255
-0.100000 0.000000 0.850000 -0.882958 -0.365734 0.294319 0.856950 0.443663 0 0 255
0.000000 -0.100000 0.850000 -0.365734 -0.882958 0.294319 0.355105 0.704326 0 0 255
0.000000 0.000000 1.150000 -0.365734 -0.882958 0.294319 0.307716 0.910110 0 0 255
-0.070711 -0.070711 0.850000 -0.365734 -0.882958 0.294319 0.307515 0.693934 0 0 255
0.070711 -0.070711 0.850000 0.365733 -0.882958 0.294319 0.403126 0.716554 0 0 255
0.000000 0.000000 1.150000 0.365733 -0.882958 0.294319 0.307716 0.910110 0 0 255
0.000000 -0.100000 0.850000 0.365733 -0.882958 0.294319 0.355105 0.704326 0 0 255
0.100000 -0.000000 0.850000 0.882958 -0.365734 0.294319 0.951555 0.451840 0 0 255
0.000000 0.000000 1.150000 0.882958 -0.365734 0.294319 0.904649 0.649446 0 0 255
0.070711 -0.070711 0.850000 0.882958 -0.365734 0.294319 0.904540 0.438840 0 0 255
0.000000 0.100000 0.850000 0.000000 0.000000 -1.000000 0.710474 0.995353 0 0 255
0.070711 0.070711 0.850000 0.000000 0.000000 -1.000000 0.710480 0.942171 0 0 255
-0.070711 0.070711 0.850000 0.000000 0.000000 -1.000000 0.748068 1.032954 0 0 255
0.000000 0.050000 0.000000 0.382684 0.923880 0.000000 0.231442 0.694499 0 0 255
0.000000 0.050000 1.000000 0.382684 0.923880 0.000000 0.229313 0.000576 0 0 255
0.035355 0.035355 1.000000 0.382684 0.923880 0.000000 0.254139 0.000000 0 0 255
0.035355 0.035355 0.000000 0.923879 0.382684 0.000000 0.356643 0.000000 0 0 255
0.035355 0.035355 1.000000 0.923879 0.382684 0.000000 0.358769 0.693178 0 0 255
0.050000 -0.000000 1.000000 0.923879 0.382684 0.000000 0.334022 0.693934 0 0 255
0.050000 -0.000000 0.000000 0.923879 -0.382684 0.000000 0.331896 0.000757 0 0 255
0.050000 -0.000000 1.000000 0.923879 -0.382684 0.000000 0.334022 0.693934 0 0 255
0.035355 -0.035355 1.000000 0.923879 -0.382684 0.000000 0.309642 0.693266 0 0 255
0.035355 -0.035355 0.000000 0.382684 -0.923880 0.000000 0.051255 0.000476 0 0 255
0.035355 -0.035355 1.000000 0.382684 -0.923880 0.000000 0.049125 0.694761 0 0 255
0.000000 -0.050000 1.000000 0.382684 -0.923880 0.000000 0.024353 0.694285 0 0 255
0.000000 -0.050000 0.000000 -0.382684 -0.923880 -0.000000 0.026483 0.000000 0 0 255
0.000000 -0.050000 1.000000 -0.382684 -0.923880 -0.000000 0.024353 0.694285 0 0 255
-0.035355 -0.035355 1.000000 -0.382684 -0.923880 -0.000000 0.000000 0.694652 0 0 255
-0.035355 -0.035355 0.000000 -0.923880 -0.382683 -0.000000 0.151635 0.000368 0 0 255
-0.035355 -0.035355 1.000000 -0.923880 -0.382683 -0.000000 0.153765 0.694652 0 0 255
-0.050000 0.000000 1.000000 -0.923880 -0.382683 -0.000000 0.129412 0.694284 0 0 255
0.035355 0.035355 1.000000 -0.000000 -0.000000 1.000000 0.710468 0.950467 0 0 255
0.000000 0.050000 1.000000 -0.000000 -0.000000 1.000000 0.691671 0.969273 0 0 255
0.050000 -0.000000 1.000000 -0.000000 -0.000000 1.000000 0.710474 0.923877 0 0 255
-0.035355 0.035355 0.000000 -0.382684 0.923880 0.000000 0.207149 0.694006 0 0 255
-0.035355 0.035355 1.000000 -0.382684 0.923880 0.000000 0.205020 0.000083 0 0 255
0.000000 0.050000 1.000000 -0.382684 0.923880 0.000000 0.229313 0.000576 0 0 255
-0.050000 0.000000 0.000000 -0.923880 0.382683 0.000000 0.127282 0.000000 0 0 255
-0.050000 0.000000 1.000000 -0.923880 0.382683 0.000000 0.129412 0.694284 0 0 255
-0.035355 0.035355 1.000000 -0.923880 0.382683 0.000000 0.104640 0.694761 0 0 255
0.000000 0.050000 0.000000 0.000000 0.000000 -1.000000 0.840354 0.911020 0 0 255
0.035355 0.035355 0.000000 0.000000 0.000000 -1.000000 0.840357 0.884429 0 0 255
0.050000 -0.000000 0.000000 0.000000 0.000000 -1.000000 0.859158 0.865624 0 0 255
0.100000 -0.000000 0.850000 0.000000 0.000000 -1.000000 0.748081 0.904562 0 0 255
0.070711 -0.070711 0.850000 0.000000 0.000000 -1.000000 0.801252 0.904556 0 0 255
0.000000 -0.100000 0.850000 0.000000 0.000000 -1.000000 0.838846 0.942158 0 0 255
-0.070711 -0.070711 0.850000 0.000000 0.000000 -1.000000 0.838841 0.995340 0 0 255
-0.100000 0.000000 0.850000 0.000000 -0.000000 -1.000000 0.801240 1.032949 0 0 255
0.035355 0.035355 0.000000 0.382684 0.923880 0.000000 0.256268 0.693923 0 0 255
0.050000 -0.000000 0.000000 0.923879 0.382684 0.000000 0.331896 0.000757 0 0 255
0.035355 -0.035355 0.000000 0.923879 -0.382684 0.000000 0.307515 0.000088 0 0 255
0.000000 -0.050000 0.000000 0.382684 -0.923880 0.000000 0.026483 0.000000 0 0 255
-0.035355 -0.035355 0.000000 -0.382684 -0.923880 0.000000 0.002130 0.000368 0 0 255
-0.050000 0.000000 0.000000 -0.923880 -0.382683 0.000000 0.127282 0.000000 0 0 255
-0.035355 0.035355 1.000000 0.000000 -0.000000 1.000000 0.665094 0.969279 0 0 255
-0.050000 0.000000 1.000000 0.000000 -0.000000 1.000000 0.646305 0.950482 0 0 255
-0.035355 -0.035355 1.000000 0.000000 0.000000 1.000000 0.646311 0.923892 0 0 255
0.000000 -0.050000 1.000000 0.000000 0.000000 1.000000 0.665109 0.905086 0 0 255
0.035355 -0.035355 1.000000 0.000000 0.000000 1.000000 0.691686 0.905080 0 0 255
0.000000 0.050000 0.000000 -0.382684 0.923880 0.000000 0.231442 0.694499 0 0 255
-0.035355 0.035355 0.000000 -0.923880 0.382683 0.000000 0.102510 0.000476 0 0 255
0.000000 -0.050000 0.000000 -0.000000 0.000000 -1.000000 0.904540 0.884422 0 0 255
0.035355 -0.035355 0.000000 -0.000000 0.000000 -1.000000 0.885743 0.865622 0 0 255
-0.050000 0.000000 0.000000 0.000000 0.000000 -1.000000 0.885737 0.929818 0 0 255
-0.035355 -0.035355 0.000000 0.000000 0.000000 -1.000000 0.904538 0.911013 0 0 255
-0.035355 0.035355 0.000000 -0.000000 0.000000 -1.000000 0.859151 0.929821 0 0 255
3 0 1 2
3 3 4 5
3 6 7 8
3 9 10 11
3 12 13 14
3 15 16 17
3 18 19 20
3 21 22 23
3 24 25 26
3 27 28 29
3 30 31 32
3 33 34 35
3 36 37 38
3 39 40 41
3 42 43 44
3 45 46 47
3 48 49 50
3 51 52 53
3 54 55 56
3 25 57 26
3 57 58 26
3 58 59 26
3 59 60 26
3 61 62 63
3 64 27 29
3 65 30 32
3 66 33 35
3 67 36 38
3 68 39 41
3 69 42 44
3 46 70 47
3 70 71 47
3 71 72 47
3 72 73 47
3 73 74 47
3 75 48 50
3 76 51 53
3 77 56 78
3 79 77 80
3 81 54 79
3 54 56 77
3 79 54 77
3 82 83 84
3 85 86 87
3 88 89 90
3 91 92 93
3 94 95 96
3 97 98 99
3 100 101 102
3 103 104 105
3 106 107 108
3 109 110 111
3 112 113 114
3 115 116 117
3 118 119 120
3 121 122 123
3 124 125 126
3 127 128 129
3 130 131 132
3 133 134 135
3 136 137 138
3 107 139 108
3 139 140 108
3 141 142 143
3 144 145 146
3 147 148 108
3 149 109 111
3 150 112 114
3 151 115 117
3 152 118 120
3 153 121 123
3 154 124 126
3 128 155 129
3 155 156 129
3 156 157 129
3 157 158 129
3 158 159 129
3 160 130 132
3 161 133 135
3 162 138 163
3 164 162 165
3 166 136 164
3 136 138 162
3 164 136 162
3 167 168 169
3 170 171 172
3 173 174 175
3 176 177 178
3 179 180 181
3 182 183 184
3 185 186 187
3 188 189 190
3 191 192 193
3 194 195 196
3 197 198 199
3 200 201 202
3 203 204 205
3 206 207 208
3 209 210 211
3 212 213 214
3 215 216 217
3 218 219 220
3 221 222 223
3 192 224 193
3 224 225 193
3 225 226 193
3 226 227 193
3 227 228 193
3 229 194 196
3 230 197 199
3 231 200 202
3 232 203 205
3 233 206 208
3 234 209 211
3 213 235 214
3 235 236 214
3 236 237 214
3 237 238 214
3 238 239 214
3 240 215 217
3 241 218 220
3 242 223 243
3 244 242 245
3 246 221 244
3 221 223 242
3 244 221 242
3 247 248 249
3 250 251 252
3 253 254 255
3 256 257 258
3 259 260 261
3 262 263 264
3 265 266 267
3 268 269 270
3 271 272 273
3 274 275 276
3 277 278 279
3 280 281 282
3 283 284 285
3 286 287 288
3 289 290 291
3 292 293 294
3 295 296 297
3 298 299 300
3 301 302 303
3 272 304 273
3 304 305 273
3 305 306 273
3 306 307 273
3 307 308 273
3 309 274 276
3 310 277 279
3 311 280 282
3 312 283 285
3 313 286 288
3 314 289 291
3 293 315 294
3 315 316 294
3 316 317 294
3 317 318 294
3 318 319 294
3 320 295 297
3 321 298 300
3 322 303 323
3 324 322 325
3 326 301 324
3 301 303 322
3 324 301 322
