ply
format ascii 1.0
comment Created by Blender 2.63 (sub 0) - www.blender.org, source file: ''
element vertex 48
property float x
property float y
property float z
property float nx
property float ny
property float nz
property float s
property float t
property uchar red
property uchar green
property uchar blue
element face 80
property list uchar uint vertex_indices
end_header
0.000000 0.000000 -1.000000 0.000000 0.000000 -1.000000 0.664070 0.004302 0 146 255
0.425323 -0.309011 -0.850654 0.425306 -0.309000 -0.850642 0.381732 0.175293 0 146 255
-0.162456 -0.499995 -0.850654 -0.162450 -0.499985 -0.850642 0.178640 0.171922 0 146 255
0.723607 -0.525725 -0.447220 0.723594 -0.525712 -0.447188 0.379374 0.351470 0 146 255
0.850648 0.000000 -0.525736 0.850642 0.000000 -0.525712 0.479533 0.325495 0 146 255
-0.162456 -0.499995 -0.850654 -0.162450 -0.499985 -0.850642 1.178640 0.171922 0 146 255
-0.525730 0.000000 -0.850652 -0.525712 0.000000 -0.850642 0.975086 0.174558 0 146 255
-0.162456 0.499995 -0.850654 -0.162450 0.499985 -0.850642 0.776074 0.179466 0 146 255
0.425323 0.309011 -0.850654 0.425306 0.309000 -0.850642 0.580065 0.179911 0 146 255
0.951058 -0.309013 0.000000 0.951048 -0.309000 0.000000 0.428319 0.500385 0 146 255
-0.276388 -0.850649 -0.447220 -0.276376 -0.850642 -0.447218 0.178418 0.348130 0 146 255
0.262869 -0.809012 -0.525738 0.262856 -0.808985 -0.525712 0.279208 0.320557 0 146 255
0.000000 -1.000000 0.000000 0.000000 -1.000000 0.000000 0.228325 0.496044 0 146 255
-0.894426 0.000000 -0.447216 -0.894406 0.000000 -0.447188 0.977323 0.350738 0 146 255
-0.688189 -0.499997 -0.525736 -0.688162 -0.499985 -0.525712 1.077626 0.320102 0 146 255
-0.951058 -0.309013 0.000000 -0.951048 -0.309000 0.000000 1.028311 0.497170 0 146 255
-0.276388 0.850649 -0.447220 -0.276376 0.850642 -0.447218 0.777622 0.355661 0 146 255
-0.688189 0.499997 -0.525736 -0.688162 0.499985 -0.525712 0.877029 0.324765 0 146 255
-0.587786 0.809017 0.000000 -0.587756 0.809015 0.000000 0.828326 0.502207 0 146 255
0.723607 0.525725 -0.447220 0.723594 0.525712 -0.447188 0.578861 0.356111 0 146 255
0.262869 0.809012 -0.525738 0.262856 0.808985 -0.525712 0.678202 0.328074 0 146 255
0.587786 0.809017 0.000000 0.587756 0.809015 0.000000 0.628316 0.504194 0 146 255
0.587786 -0.809017 0.000000 0.587756 -0.809015 0.000000 0.328326 0.497793 0 146 255
-0.587786 -0.809017 0.000000 -0.587756 -0.809015 0.000000 0.128316 0.495806 0 146 255
-0.951058 0.309013 0.000000 -0.951048 0.309000 0.000000 0.928319 0.499615 0 146 255
0.000000 1.000000 0.000000 0.000000 1.000000 0.000000 0.728325 0.503956 0 146 255
0.951058 0.309013 0.000000 0.951048 0.309000 0.000000 0.528311 0.502830 0 146 255
0.276388 -0.850649 0.447220 0.276376 -0.850642 0.447218 0.277622 0.644339 0 146 255
0.688189 -0.499997 0.525736 0.688162 -0.499985 0.525712 0.377029 0.675235 0 146 255
0.162456 -0.499995 0.850654 0.162450 -0.499985 0.850642 0.276074 0.820534 0 146 255
-0.723607 -0.525725 0.447220 -0.723594 -0.525712 0.447188 0.078861 0.643890 0 146 255
-0.262869 -0.809012 0.525738 -0.262856 -0.808985 0.525712 0.178202 0.671926 0 146 255
-0.425323 -0.309011 0.850654 -0.425306 -0.309000 0.850642 0.080065 0.820089 0 146 255
-0.723607 0.525725 0.447220 -0.723594 0.525712 0.447188 0.879374 0.648530 0 146 255
-0.850648 0.000000 0.525736 -0.850642 0.000000 0.525712 0.979533 0.674505 0 146 255
-0.425323 0.309011 0.850654 -0.425306 0.309000 0.850642 0.881732 0.824707 0 146 255
0.276388 0.850649 0.447220 0.276376 0.850642 0.447218 0.678418 0.651870 0 146 255
-0.262869 0.809012 0.525738 -0.262856 0.808985 0.525712 0.779208 0.679443 0 146 255
0.162456 0.499995 0.850654 0.162450 0.499985 0.850642 0.678640 0.828078 0 146 255
0.894426 0.000000 0.447216 0.894406 0.000000 0.447188 0.477323 0.649262 0 146 255
0.688189 0.499997 0.525736 0.688162 0.499985 0.525712 0.577626 0.679898 0 146 255
0.525730 0.000000 0.850652 0.525712 0.000000 0.850642 0.475086 0.825442 0 146 255
-0.688189 -0.499997 -0.525736 -0.688162 -0.499985 -0.525712 0.077626 0.320102 0 146 255
-0.951058 -0.309013 0.000000 -0.951048 -0.309000 0.000000 0.028312 0.497170 0 146 255
-0.723607 -0.525725 0.447220 -0.723594 -0.525712 0.447188 1.078861 0.643890 0 146 255
0.000000 0.000000 1.000000 0.000000 0.000000 1.000000 0.164070 0.995698 0 146 255
-0.425323 -0.309011 0.850654 -0.425306 -0.309000 0.850642 1.080065 0.820089 0 146 255
0.000000 0.000000 1.000000 0.000000 0.000000 1.000000 1.164070 0.995698 0 146 255
3 0 1 2
3 3 1 4
3 0 5 6
3 0 6 7
3 0 7 8
3 3 4 9
3 10 11 12
3 13 14 15
3 16 17 18
3 19 20 21
3 3 9 22
3 10 12 23
3 13 15 24
3 16 18 25
3 19 21 26
3 27 28 29
3 30 31 32
3 33 34 35
3 36 37 38
3 39 40 41
3 2 11 10
3 2 1 11
3 1 3 11
3 4 8 19
3 4 1 8
3 1 0 8
3 6 14 13
3 6 5 14
3 2 10 42
3 7 17 16
3 7 6 17
3 6 13 17
3 8 20 19
3 8 7 20
3 7 16 20
3 9 26 39
3 9 4 26
3 4 19 26
3 12 22 27
3 12 11 22
3 11 3 22
3 43 23 30
3 43 42 23
3 42 10 23
3 18 24 33
3 18 17 24
3 17 13 24
3 21 25 36
3 21 20 25
3 20 16 25
3 22 28 27
3 22 9 28
3 9 39 28
3 23 31 30
3 23 12 31
3 12 27 31
3 24 34 33
3 24 15 34
3 15 44 34
3 25 37 36
3 25 18 37
3 18 33 37
3 26 40 39
3 26 21 40
3 21 36 40
3 29 41 45
3 29 28 41
3 28 39 41
3 32 29 45
3 32 31 29
3 31 27 29
3 35 46 47
3 35 34 46
3 34 44 46
3 38 35 47
3 38 37 35
3 37 33 35
3 41 38 47
3 41 40 38
3 40 36 38
