ply
format ascii 1.0
comment Created by Blender 2.63 (sub 0) - www.blender.org, source file: ''
element vertex 6
property float x
property float y
property float z
property float nx
property float ny
property float nz
property float s
property float t
property uchar red
property uchar green
property uchar blue
element face 2
property list uchar uint vertex_indices
end_header
-0.532615 -0.007205 0.702320 0.500000 0.500000 0.707107 1.000000 0.000000 255 255 0
0.985950 0.097147 -0.445256 0.500000 0.500000 0.707107 1.000000 1.000000 255 255 0
-0.428264 1.511360 -0.445256 0.500000 0.500000 0.707107 0.000000 0.000000 255 255 0
0.625486 1.000000 0.000000 0.000000 -0.000000 1.000000 0.000000 0.000000 0 96 255
-0.997431 0.000000 0.000000 0.000000 -0.000000 1.000000 1.000000 0.000000 0 96 255
0.625486 -1.000000 0.000000 0.000000 -0.000000 1.000000 1.000000 1.000000 0 96 255
3 0 1 2
3 3 4 5
